<?xml version="1.0" encoding="UTF-8"?>
<svg version="1.1" xmlns="http://www.w3.org/2000/svg" width="861" height="283">
<path d="M0 0 C284.13 0 568.26 0 861 0 C861 93.39 861 186.78 861 283 C576.87 283 292.74 283 0 283 C0 189.61 0 96.22 0 0 Z " fill="#FEFEFE" transform="translate(0,0)"/>
<path d="M0 0 C0.73619064 -0.00902847 1.47238129 -0.01805695 2.23088074 -0.02735901 C3.78840065 -0.04185825 5.34598143 -0.05074745 6.90356445 -0.05444336 C9.27465922 -0.06631458 11.64312838 -0.11547362 14.01367188 -0.16601562 C15.52993527 -0.17548357 17.04621459 -0.18271683 18.5625 -0.1875 C19.61749443 -0.21679848 19.61749443 -0.21679848 20.69380188 -0.24668884 C26.36442537 -0.19529295 28.64512768 1.5022021 32.48046875 5.37109375 C33.70586404 7.82188432 33.62042327 9.44432385 33.64160156 12.18457031 C33.65120911 13.18611145 33.66081665 14.18765259 33.67071533 15.21954346 C33.67496521 16.3059613 33.67921509 17.39237915 33.68359375 18.51171875 C33.68929382 19.6266571 33.6949939 20.74159546 33.7008667 21.89031982 C33.71032694 24.2541814 33.71685473 26.61805622 33.72070312 28.98193359 C33.73039164 32.59235818 33.76139906 36.20220953 33.79296875 39.8125 C33.79950039 42.10806953 33.80475023 44.40364314 33.80859375 46.69921875 C33.82094055 47.77753967 33.83328735 48.8558606 33.8460083 49.96685791 C33.81646756 59.94944603 33.81646756 59.94944603 30.48046875 64.37109375 C24.48580033 68.40884261 18.05452925 67.89451991 11.11279297 67.87207031 C8.98528444 67.87109596 6.86136568 67.91281107 4.734375 67.95703125 C-6.61137747 68.05858315 -6.61137747 68.05858315 -10.36328125 65.08984375 C-13.50498924 61.12855976 -14.76513751 58.49725889 -14.81005859 53.42236328 C-14.8228183 52.44099396 -14.835578 51.45962463 -14.84872437 50.44851685 C-14.85095001 49.39429535 -14.85317566 48.34007385 -14.85546875 47.25390625 C-14.86212555 46.16399384 -14.86878235 45.07408142 -14.87564087 43.95114136 C-14.88576249 41.64631843 -14.89045804 39.34146622 -14.89013672 37.03662109 C-14.89450641 33.51610849 -14.93082327 29.99685305 -14.96875 26.4765625 C-14.97461896 24.23568136 -14.97858782 21.99479428 -14.98046875 19.75390625 C-14.99483978 18.70373322 -15.00921082 17.65356018 -15.02401733 16.57156372 C-14.98634356 10.52446134 -14.60921638 6.9436596 -10.51953125 2.37109375 C-6.90454244 -0.03889879 -4.18440275 0.03163184 0 0 Z " fill="#030303" transform="translate(527.51953125,108.62890625)"/>
<path d="M0 0 C9.714375 -0.1546875 9.714375 -0.1546875 19.625 -0.3125 C21.65865723 -0.35802002 23.69231445 -0.40354004 25.78759766 -0.45043945 C27.41306919 -0.46505274 29.03855912 -0.47779142 30.6640625 -0.48828125 C31.49703857 -0.51386108 32.33001465 -0.53944092 33.18823242 -0.5657959 C37.43864134 -0.56896123 40.15105889 -0.32065836 43.52099609 2.40551758 C46.83183152 5.87058042 47.12728337 7.35625368 47.17700195 12.01293945 C47.19625481 13.58015495 47.19625481 13.58015495 47.21589661 15.17903137 C47.22328354 16.31233383 47.23067047 17.44563629 47.23828125 18.61328125 C47.246353 19.77498337 47.25442474 20.93668549 47.26274109 22.1335907 C47.27659026 24.5957998 47.28730867 27.05802816 47.29516602 29.52026367 C47.31238191 33.2866654 47.35626257 37.05219032 47.40039062 40.81835938 C47.41051697 43.20832687 47.41903325 45.59830183 47.42578125 47.98828125 C47.44328934 49.11551102 47.46079742 50.24274078 47.47883606 51.40412903 C47.45729674 59.16610594 47.45729674 59.16610594 45.28588867 63.12573242 C40.16856404 67.3215779 35.54763356 67.27702827 29.19921875 67.1953125 C28.45724243 67.19329834 27.71526611 67.19128418 26.95080566 67.18920898 C24.19630697 67.17879606 21.44189685 67.15087363 18.6875 67.125 C12.520625 67.08375 6.35375 67.0425 0 67 C0 44.89 0 22.78 0 0 Z " fill="#000000" transform="translate(699,109)"/>
<path d="M0 0 C5.28 0 10.56 0 16 0 C16 22.44 16 44.88 16 68 C10.72 68 5.44 68 0 68 C-5.51185106 57.07472379 -10.82512967 46.08900785 -16 35 C-16.33 45.89 -16.66 56.78 -17 68 C-21.95 68 -26.9 68 -32 68 C-32 45.89 -32 23.78 -32 1 C-26.72 1 -21.44 1 -16 1 C-11.05 11.23 -6.1 21.46 -1 32 C-0.67 21.44 -0.34 10.88 0 0 Z " fill="#040404" transform="translate(669,108)"/>
<path d="M0 0 C5.28 0 10.56 0 16 0 C17.73175599 3.43621634 19.46045004 6.87391915 21.1875 10.3125 C21.67025391 11.26962891 22.15300781 12.22675781 22.65039062 13.21289062 C23.13056641 14.17001953 23.61074219 15.12714844 24.10546875 16.11328125 C24.54012451 16.97735596 24.97478027 17.84143066 25.42260742 18.73168945 C27.6989574 23.44821897 29.83286456 28.23230204 32 33 C32.33 22.44 32.66 11.88 33 1 C37.95 1 42.9 1 48 1 C48 23.11 48 45.22 48 68 C43.05 68 38.1 68 33 68 C31.45392214 65.10645112 29.91313198 62.21027014 28.375 59.3125 C27.94832031 58.51521484 27.52164063 57.71792969 27.08203125 56.89648438 C23.43996468 50.02004526 20.27632685 43.09870817 17 36 C16.67 46.56 16.34 57.12 16 68 C10.72 68 5.44 68 0 68 C0 45.56 0 23.12 0 0 Z " fill="#040404" transform="translate(192,108)"/>
<path d="M0 0 C5.28 0 10.56 0 16 0 C16 17.49 16 34.98 16 53 C21.28 53 26.56 53 32 53 C32 35.51 32 18.02 32 0 C37.28 0 42.56 0 48 0 C48.06784997 7.73663688 48.12285883 15.47316255 48.15543652 23.21002483 C48.17107439 26.80280829 48.19227779 30.39537715 48.22631836 33.98803711 C48.25897965 37.45694391 48.27686714 40.92564464 48.28463173 44.39469337 C48.29285018 46.35838752 48.31625892 48.32199908 48.33988953 50.28556824 C48.34011612 51.4864357 48.34034271 52.68730316 48.34057617 53.92456055 C48.34723801 54.97935104 48.35389984 56.03414154 48.36076355 57.12089539 C47.94214092 60.4617494 46.99127 62.30608373 45 65 C40.57095737 67.89161392 37.04045599 68.3841083 31.80859375 68.3984375 C31.14086441 68.40130768 30.47313507 68.40417786 29.78517151 68.40713501 C28.38256983 68.4091646 26.97993913 68.40371246 25.57739258 68.39111328 C23.43962021 68.37501597 21.30373062 68.39101034 19.16601562 68.41015625 C17.79687086 68.40817411 16.42772726 68.40433105 15.05859375 68.3984375 C13.82423584 68.39505371 12.58987793 68.39166992 11.31811523 68.38818359 C7.6630479 67.96058025 5.8668683 67.28140525 3 65 C0.24529793 61.20252987 -0.37000049 58.58341067 -0.34057617 53.92456055 C-0.34034958 52.72369308 -0.34012299 51.52282562 -0.33988953 50.28556824 C-0.32440567 48.99894791 -0.30892181 47.71232758 -0.29296875 46.38671875 C-0.28736869 45.04865495 -0.28310053 43.71058498 -0.28010559 42.37251282 C-0.26868892 38.86248588 -0.23924987 35.35283544 -0.20599365 31.84295654 C-0.17522371 28.25668428 -0.16158553 24.67035078 -0.14648438 21.08398438 C-0.11437647 14.05581998 -0.06163497 7.02796686 0 0 Z " fill="#080808" transform="translate(575,108)"/>
<path d="M0 0 C0.74759079 0.00424484 1.49518158 0.00848969 2.26542664 0.01286316 C4.63956607 0.02957819 7.01283842 0.06721528 9.38671875 0.10546875 C11.00194081 0.12052494 12.61717626 0.13421172 14.23242188 0.14648438 C18.18028557 0.17689935 22.12628833 0.23562925 26.07421875 0.29296875 C26.07421875 5.57296875 26.07421875 10.85296875 26.07421875 16.29296875 C17.16421875 16.29296875 8.25421875 16.29296875 -0.92578125 16.29296875 C-0.92578125 19.92296875 -0.92578125 23.55296875 -0.92578125 27.29296875 C0.38777344 27.25816406 1.70132813 27.22335938 3.0546875 27.1875 C4.79035176 27.15935409 6.5260299 27.13205479 8.26171875 27.10546875 C9.55819336 27.06776367 9.55819336 27.06776367 10.88085938 27.02929688 C19.33292626 26.93214668 19.33292626 26.93214668 23.07421875 30.29296875 C26.95927437 35.66573713 26.5559765 41.42789923 26.51171875 47.79296875 C26.54168945 49.32244141 26.54168945 49.32244141 26.57226562 50.8828125 C26.5684055 56.81968851 26.2882227 60.7404038 22.07421875 65.29296875 C17.88691629 68.4829544 14.2379693 68.69570955 9.1484375 68.5859375 C8.40084671 68.58169266 7.65325592 68.57744781 6.88301086 68.57307434 C4.50887143 68.55635931 2.13559908 68.51872222 -0.23828125 68.48046875 C-1.85350331 68.46541256 -3.46873876 68.45172578 -5.08398438 68.43945312 C-9.03184807 68.40903815 -12.97785083 68.35030825 -16.92578125 68.29296875 C-16.92578125 63.34296875 -16.92578125 58.39296875 -16.92578125 53.29296875 C-8.01578125 53.29296875 0.89421875 53.29296875 10.07421875 53.29296875 C10.07421875 49.66296875 10.07421875 46.03296875 10.07421875 42.29296875 C8.21216797 42.34517578 8.21216797 42.34517578 6.3125 42.3984375 C4.67058649 42.42658459 3.02865829 42.45388376 1.38671875 42.48046875 C0.16178711 42.51817383 0.16178711 42.51817383 -1.08789062 42.55664062 C-6.93623838 42.62767319 -10.16048833 41.66321983 -14.67578125 37.79296875 C-18.29072484 33.45503644 -17.19129138 26.79032393 -17.23828125 21.48046875 C-17.26728516 20.39958984 -17.29628906 19.31871094 -17.32617188 18.20507812 C-17.37485743 12.10440325 -17.32628828 7.94836035 -12.92578125 3.29296875 C-8.73522938 0.10647273 -5.09090666 -0.1098017 0 0 Z " fill="#050505" transform="translate(60.92578125,107.70703125)"/>
<path d="M0 0 C4.95 0 9.9 0 15 0 C17.45074905 6.1594047 19.20790706 12.32346928 20.8125 18.75 C22.76439869 26.40446848 24.82620383 34.00470346 27.125 41.5625 C27.37306396 42.37807373 27.62112793 43.19364746 27.87670898 44.03393555 C28.35674199 45.60871892 28.83727373 47.18335038 29.31835938 48.7578125 C30.36061176 52.18619571 31.37382922 55.62185674 32.375 59.0625 C32.85066406 60.68865234 32.85066406 60.68865234 33.3359375 62.34765625 C34 65 34 65 34 68 C31.54101345 68.08076963 29.08466258 68.14037143 26.625 68.1875 C25.92632812 68.21263672 25.22765625 68.23777344 24.5078125 68.26367188 C22.4765625 68.29296875 22.4765625 68.29296875 19 68 C17 65 17 65 16 60 C10.39 59.67 4.78 59.34 -1 59 C-1.66 61.97 -2.32 64.94 -3 68 C-7.95 68 -12.9 68 -18 68 C-17.4514718 61.93637846 -16.47238427 56.39241208 -14.75 50.5625 C-14.29531021 48.97793994 -13.84089064 47.39330233 -13.38671875 45.80859375 C-13.1551709 45.00921387 -12.92362305 44.20983398 -12.68505859 43.38623047 C-11.82016759 40.37359874 -10.99273634 37.35140787 -10.16601562 34.328125 C-7.0155885 22.82753668 -3.77138368 11.31415104 0 0 Z " fill="#050505" transform="translate(115,108)"/>
<path d="M0 0 C0.76978683 0.00565979 1.53957367 0.01131958 2.33268738 0.01715088 C4.77842818 0.03944628 7.22267485 0.08962625 9.66796875 0.140625 C11.33135897 0.160699 12.99477228 0.1789482 14.65820312 0.1953125 C18.72498947 0.23587895 22.78856764 0.31417151 26.85546875 0.390625 C26.85546875 5.340625 26.85546875 10.290625 26.85546875 15.390625 C17.94546875 15.390625 9.03546875 15.390625 -0.14453125 15.390625 C-0.14453125 19.020625 -0.14453125 22.650625 -0.14453125 26.390625 C1.16902344 26.35582031 2.48257813 26.32101563 3.8359375 26.28515625 C5.57160176 26.25701034 7.3072799 26.22971104 9.04296875 26.203125 C10.33944336 26.16541992 10.33944336 26.16541992 11.66210938 26.12695312 C16.5214564 26.07109856 20.01639857 26.05764694 23.85546875 29.390625 C26.41887757 33.01207857 27.2380131 35.49778138 27.25390625 39.91796875 C27.25970703 41.47741211 27.25970703 41.47741211 27.265625 43.06835938 C27.25402344 44.14408203 27.24242187 45.21980469 27.23046875 46.328125 C27.24207031 47.39998047 27.25367188 48.47183594 27.265625 49.57617188 C27.22705028 59.95920033 27.22705028 59.95920033 23.85546875 64.390625 C19.24262069 67.25844172 15.36402418 67.80267526 10.05078125 67.68359375 C9.32680145 67.67934891 8.60282166 67.67510406 7.85690308 67.67073059 C5.56436588 67.65405472 3.27273629 67.61642581 0.98046875 67.578125 C-0.58201847 67.56306371 -2.1445196 67.54937784 -3.70703125 67.53710938 C-7.52015478 67.50675011 -11.3313377 67.4480142 -15.14453125 67.390625 C-15.14453125 62.440625 -15.14453125 57.490625 -15.14453125 52.390625 C-6.23453125 52.390625 2.67546875 52.390625 11.85546875 52.390625 C11.85546875 48.760625 11.85546875 45.130625 11.85546875 41.390625 C10.48132813 41.44863281 9.1071875 41.50664062 7.69140625 41.56640625 C5.87112783 41.61332064 4.05081253 41.658819 2.23046875 41.703125 C1.32683594 41.74501953 0.42320312 41.78691406 -0.5078125 41.83007812 C-4.90663768 41.91034866 -8.12833134 41.93021025 -11.66796875 39.12109375 C-16.88881581 33.36498635 -16.48022532 28.44481113 -16.45703125 20.953125 C-16.47314453 19.91607422 -16.48925781 18.87902344 -16.50585938 17.81054688 C-16.51203293 8.19832298 -16.51203293 8.19832298 -13.14453125 4.390625 C-9.00441822 0.25195385 -5.62394209 -0.156949 0 0 Z " fill="#020202" transform="translate(776.14453125,108.609375)"/>
<path d="M0 0 C0.77403168 0.00141495 1.54806335 0.0028299 2.34555054 0.00428772 C4.82155192 0.00989222 7.29746338 0.02244542 9.7734375 0.03515625 C11.45051953 0.04017067 13.12760297 0.04473368 14.8046875 0.04882812 C18.91930556 0.0598631 23.03385628 0.07713071 27.1484375 0.09765625 C27.1484375 5.04765625 27.1484375 9.99765625 27.1484375 15.09765625 C18.2384375 15.09765625 9.3284375 15.09765625 0.1484375 15.09765625 C0.1484375 18.72765625 0.1484375 22.35765625 0.1484375 26.09765625 C1.52257812 26.03964844 2.89671875 25.98164063 4.3125 25.921875 C6.13277842 25.87496061 7.95309372 25.82946225 9.7734375 25.78515625 C11.12888672 25.72231445 11.12888672 25.72231445 12.51171875 25.65820312 C17.00757214 25.576162 20.15286075 25.57752423 23.734375 28.4921875 C28.51236167 33.6490113 27.36947451 39.16539899 27.3984375 45.91015625 C27.4190625 47.09931641 27.4396875 48.28847656 27.4609375 49.51367188 C27.46867187 51.23553711 27.46867187 51.23553711 27.4765625 52.9921875 C27.49058105 54.56770386 27.49058105 54.56770386 27.50488281 56.17504883 C26.96213871 60.62517869 25.40512889 63.06909794 21.95629883 65.8918457 C18.33890879 67.445301 15.0858112 67.4739463 11.22265625 67.390625 C10.47506546 67.38638016 9.72747467 67.38213531 8.95722961 67.37776184 C6.58309018 67.36104681 4.20981783 67.32340972 1.8359375 67.28515625 C0.22071544 67.27010006 -1.39452001 67.25641328 -3.00976562 67.24414062 C-6.95762932 67.21372565 -10.90363208 67.15499575 -14.8515625 67.09765625 C-14.8515625 62.14765625 -14.8515625 57.19765625 -14.8515625 52.09765625 C-5.9415625 52.09765625 2.9684375 52.09765625 12.1484375 52.09765625 C12.1484375 48.46765625 12.1484375 44.83765625 12.1484375 41.09765625 C10.30378906 41.14986328 10.30378906 41.14986328 8.421875 41.203125 C6.78907623 41.2312767 5.1562626 41.25857538 3.5234375 41.28515625 C2.71519531 41.31029297 1.90695312 41.33542969 1.07421875 41.36132812 C-3.97485167 41.42290215 -7.56212192 41.06677353 -11.8515625 38.09765625 C-15.96982656 32.45027889 -15.36640348 26.90167187 -15.3515625 20.16015625 C-15.37992187 18.99291016 -15.40828125 17.82566406 -15.4375 16.62304688 C-15.45930309 7.05694208 -15.45930309 7.05694208 -12.4453125 3.34375 C-8.2934338 -0.25162688 -5.28482604 -0.03611539 0 0 Z " fill="#000000" transform="translate(471.8515625,108.90234375)"/>
<path d="M0 0 C4.95 0 9.9 0 15 0 C18.78974143 7.88058561 22.49415892 15.59806226 25 24 C25.66 24 26.32 24 27 24 C27.5259375 22.2365625 27.5259375 22.2365625 28.0625 20.4375 C30.39955405 13.35826832 33.77472581 6.70680304 37 0 C41.95 0 46.9 0 52 0 C51.06431392 4.67843038 49.55341356 8.22806812 47.4375 12.4140625 C38.12316445 31.47612597 32.40210833 46.4284624 34 68 C28.72 68 23.44 68 18 68 C18.18755859 65.61201172 18.18755859 65.61201172 18.37890625 63.17578125 C19.21195846 42.09339548 12.17861391 26.64465897 2.56613159 8.26577759 C0 3.30900588 0 3.30900588 0 0 Z " fill="#070707" transform="translate(371,108)"/>
<path d="M0 0 C15.84 0 31.68 0 48 0 C48 4.95 48 9.9 48 15 C42.72 15 37.44 15 32 15 C32 32.16 32 49.32 32 67 C26.72 67 21.44 67 16 67 C16 49.84 16 32.68 16 15 C10.72 15 5.44 15 0 15 C0 10.05 0 5.1 0 0 Z " fill="#050505" transform="translate(254,109)"/>
<path d="M0 0 C4.95 0 9.9 0 15 0 C15 17.16 15 34.32 15 52 C23.25 52 31.5 52 40 52 C40 56.95 40 61.9 40 67 C26.8 67 13.6 67 0 67 C0 44.89 0 22.78 0 0 Z " fill="#010101" transform="translate(316,109)"/>
<path d="M0 0 C5.28 0 10.56 0 16 0 C16 22.44 16 44.88 16 68 C10.72 68 5.44 68 0 68 C0 45.56 0 23.12 0 0 Z " fill="#0A0A0A" transform="translate(163,108)"/>
<path d="M0 0 C5.61 0 11.22 0 17 0 C17 12.21 17 24.42 17 37 C11.39 37 5.78 37 0 37 C0 24.79 0 12.58 0 0 Z " fill="#F8F8F8" transform="translate(529,124)"/>
<path d="M0 0 C4.95 0 9.9 0 15 0 C17.46002787 2.46002787 17.24552005 3.84793839 17.27789307 7.20666504 C17.2738446 7.91190308 17.26979614 8.61714111 17.265625 9.34375 C17.26753845 10.06864624 17.2694519 10.79354248 17.27142334 11.54040527 C17.27278487 13.07365262 17.26909064 14.6069115 17.26074219 16.14013672 C17.25004178 18.49082259 17.26063808 20.84074423 17.2734375 23.19140625 C17.2721159 24.67968919 17.26955349 26.16797166 17.265625 27.65625 C17.26967346 28.36148804 17.27372192 29.06672607 17.27789307 29.79333496 C17.22992486 34.77007514 17.22992486 34.77007514 15 37 C10.05 37 5.1 37 0 37 C0 24.79 0 12.58 0 0 Z " fill="#FBFBFB" transform="translate(714,124)"/>
<path d="M0 0 C3.2645028 3.2645028 3.93236055 7.41047299 4.125 11.9375 C4.08375 12.618125 4.0425 13.29875 4 14 C1.69 14 -0.62 14 -3 14 C-2.48594831 9.03083364 -1.76615118 4.70973649 0 0 Z " fill="#E3E3E3" transform="translate(122,137)"/>
</svg>
